<svg xmlns="http://www.w3.org/2000/svg" width="200" height="200" viewBox="0 0 200 200" version="1.1"><path d="M 37.655 45.829 C 35.408 48.311, 35.573 52.164, 38.039 54.811 C 39.932 56.844, 40.997 57, 52.928 57 C 67.605 57, 70.333 55.936, 70.333 50.209 C 70.333 44.398, 69.258 44, 53.533 44 C 41.024 44, 39.111 44.220, 37.655 45.829 M 86.655 45.829 C 84.410 48.309, 84.570 52.570, 87 55 C 88.699 56.699, 90.333 57, 97.845 57 C 107.325 57, 110 58.249, 110 62.674 C 110 67.164, 107.300 68, 92.806 68 C 80.626 68, 79.006 68.208, 76.635 70.073 C 73.392 72.624, 73.142 76.914, 76.083 79.575 C 77.307 80.683, 80.286 81.675, 83.308 81.980 C 87.515 82.406, 88.678 82.954, 89.710 85 C 90.496 86.559, 90.976 86.899, 90.985 85.905 C 90.993 85.028, 90.100 83.495, 89 82.500 C 86.816 80.523, 86.402 79, 88.048 79 C 88.624 79, 91.549 77.431, 94.548 75.512 C 97.547 73.594, 100.007 72.357, 100.015 72.762 C 100.024 73.168, 100.361 73.050, 100.765 72.500 C 101.169 71.950, 103.525 70.501, 106 69.280 C 108.475 68.059, 114.471 64.571, 119.324 61.530 C 124.177 58.488, 128.527 56, 128.990 56 C 129.454 56, 129.983 55.662, 130.167 55.250 C 130.567 54.349, 136.718 50.822, 143.250 47.747 C 145.863 46.518, 148 45.172, 148 44.756 C 148 44.340, 134.570 44, 118.155 44 C 90.512 44, 88.188 44.135, 86.655 45.829 M 159.264 44.718 C 160.784 44.947, 163.034 44.941, 164.264 44.704 C 165.494 44.467, 164.250 44.279, 161.500 44.286 C 158.750 44.294, 157.744 44.488, 159.264 44.718 M 167.813 45.683 C 168.534 45.972, 169.397 45.936, 169.729 45.604 C 170.061 45.272, 169.471 45.036, 168.417 45.079 C 167.252 45.127, 167.015 45.364, 167.813 45.683 M 189 54.378 C 189 54.585, 189.787 55.373, 190.750 56.128 C 192.336 57.371, 192.371 57.336, 191.128 55.750 C 189.821 54.084, 189 53.555, 189 54.378 M 68 58 C 65.602 60.398, 65.433 63.746, 67.557 66.777 C 69.592 69.683, 75.198 69.802, 78 67 C 82.148 62.852, 79.034 56, 73 56 C 71.333 56, 69.111 56.889, 68 58 M 147.813 66.683 C 148.534 66.972, 149.397 66.936, 149.729 66.604 C 150.061 66.272, 149.471 66.036, 148.417 66.079 C 147.252 66.127, 147.015 66.364, 147.813 66.683 M 27.228 69.230 C 22.576 71.472, 23.276 79.670, 28.270 81.426 C 30.461 82.197, 31.549 81.982, 33.752 80.345 C 37.658 77.441, 37.955 72.896, 34.420 70.116 C 31.422 67.758, 30.515 67.646, 27.228 69.230 M 138.441 69.555 C 136.611 71.022, 136.643 71.042, 139 69.920 C 142.061 68.462, 142.628 68, 141.358 68 C 140.821 68, 139.509 68.700, 138.441 69.555 M 127.872 78.750 C 126.629 80.336, 126.664 80.371, 128.250 79.128 C 129.916 77.821, 130.445 77, 129.622 77 C 129.415 77, 128.627 77.787, 127.872 78.750 M 51 83 C 48.602 85.398, 48.433 88.746, 50.557 91.777 C 51.952 93.769, 52.972 94, 60.366 94 C 70.317 94, 72.400 92.875, 72.400 87.500 C 72.400 82.186, 70.284 81, 60.809 81 C 54.333 81, 52.659 81.341, 51 83 M 89.237 90.760 C 88.069 93.251, 88.097 93.332, 89.603 91.826 C 90.499 90.930, 91.067 89.717, 90.866 89.131 C 90.665 88.545, 89.931 89.278, 89.237 90.760 M 67 92 C 65.707 92.835, 65.734 92.971, 67.191 92.985 C 68.121 92.993, 69.160 92.550, 69.500 92 C 70.282 90.734, 68.958 90.734, 67 92 M 7.635 95.073 C 4.381 97.632, 4.143 101.914, 7.105 104.595 C 9.019 106.328, 10.929 106.500, 28.193 106.500 C 46.937 106.500, 47.201 106.470, 49.088 104.139 C 51.656 100.969, 51.495 98.404, 48.545 95.455 C 46.122 93.031, 45.863 93, 28.180 93 C 11.575 93, 10.078 93.151, 7.635 95.073 M 75.635 95.073 C 73.069 97.091, 71.929 102.220, 73.791 103.371 C 74.226 103.640, 74.412 102.404, 74.204 100.624 C 73.713 96.419, 75.794 94.710, 82.386 93.906 L 87.500 93.282 82.885 93.141 C 79.574 93.040, 77.525 93.586, 75.635 95.073 M 44.459 104.067 C 43.370 105.829, 44.518 106.076, 46.573 104.521 C 48.265 103.241, 48.294 103.060, 46.809 103.032 C 45.879 103.014, 44.821 103.480, 44.459 104.067 M 82.250 106.735 C 84.862 106.941, 89.138 106.941, 91.750 106.735 C 94.362 106.529, 92.225 106.360, 87 106.360 C 81.775 106.360, 79.638 106.529, 82.250 106.735 M 40.776 118.733 C 43.128 118.945, 46.728 118.942, 48.776 118.727 C 50.824 118.512, 48.900 118.339, 44.500 118.343 C 40.100 118.346, 38.424 118.522, 40.776 118.733 M 68.750 118.723 C 70.537 118.945, 73.463 118.945, 75.250 118.723 C 77.037 118.502, 75.575 118.320, 72 118.320 C 68.425 118.320, 66.963 118.502, 68.750 118.723 M 61.158 125 C 61.158 126.375, 61.385 126.938, 61.662 126.250 C 61.940 125.563, 61.940 124.438, 61.662 123.750 C 61.385 123.063, 61.158 123.625, 61.158 125 M 40.728 131.722 C 42.503 131.943, 45.653 131.946, 47.728 131.730 C 49.802 131.513, 48.350 131.333, 44.500 131.328 C 40.650 131.324, 38.952 131.501, 40.728 131.722 M 77.195 131.746 C 83.077 131.922, 92.977 131.923, 99.195 131.747 C 105.413 131.571, 100.600 131.427, 88.500 131.426 C 76.400 131.425, 71.313 131.569, 77.195 131.746 M 27.872 145.750 C 26.629 147.336, 26.664 147.371, 28.250 146.128 C 29.212 145.373, 30 144.585, 30 144.378 C 30 143.555, 29.179 144.084, 27.872 145.750 M 10.158 150 C 10.158 151.375, 10.385 151.938, 10.662 151.250 C 10.940 150.563, 10.940 149.438, 10.662 148.750 C 10.385 148.063, 10.158 148.625, 10.158 150 M 23.079 149.583 C 23.127 150.748, 23.364 150.985, 23.683 150.188 C 23.972 149.466, 23.936 148.603, 23.604 148.271 C 23.272 147.939, 23.036 148.529, 23.079 149.583 M 11 153.378 C 11 153.585, 11.787 154.373, 12.750 155.128 C 14.336 156.371, 14.371 156.336, 13.128 154.750 C 11.821 153.084, 11 152.555, 11 153.378" stroke="none" fill="#0eadf2" fill-rule="evenodd"/><path d="M 147.873 44.632 C 147.551 45.382, 139.331 50.008, 132.258 53.419 C 131.025 54.013, 130.012 54.837, 130.008 55.250 C 130.004 55.663, 129.583 56, 129.074 56 C 128.564 56, 124.177 58.488, 119.324 61.530 C 114.471 64.571, 108.475 68.059, 106 69.280 C 103.525 70.501, 101.169 71.950, 100.765 72.500 C 100.361 73.050, 100.024 73.168, 100.015 72.762 C 100.007 72.357, 97.547 73.594, 94.548 75.512 C 91.549 77.431, 88.624 79, 88.048 79 C 86.402 79, 86.816 80.523, 89 82.500 C 91.795 85.029, 91.674 90.414, 88.777 92.443 C 87.555 93.299, 84.730 94, 82.500 94 C 77.218 94, 74 96.266, 74 99.985 C 74 105.001, 76.069 106, 86.461 106 C 97.001 106, 100.250 107.486, 100.250 112.307 C 100.250 117.287, 99.174 117.643, 81.871 118.383 C 72.995 118.762, 64.893 119.522, 63.866 120.072 C 61.382 121.401, 61.305 127.752, 63.750 129.608 C 65.078 130.616, 70.761 130.944, 87.316 130.968 C 108.636 130.999, 112.274 131.463, 114.235 134.400 C 115.378 136.113, 115.133 138.436, 113.583 140.559 C 112.332 142.275, 110.536 142.558, 98.125 143 C 85.586 143.446, 83.921 143.714, 82.573 145.500 C 80.617 148.091, 80.611 151, 82.557 153.777 L 84.113 156 123.307 155.964 C 165.737 155.926, 169.194 155.586, 179.767 150.413 C 182.823 148.918, 187.501 145.596, 190.162 143.031 C 194.404 138.942, 195 137.862, 195 134.261 C 195 129.285, 191.548 124.666, 186.611 123.037 C 182.597 121.712, 180.568 122.384, 172.155 127.822 C 153.395 139.947, 131.766 132.918, 123.941 112.153 C 120.908 104.105, 121.506 90.683, 125.217 83.500 C 134.333 65.859, 154.674 60.880, 171.967 72.057 C 179.725 77.071, 184.894 77.404, 189.914 73.213 C 192.685 70.900, 193.335 69.573, 193.734 65.417 C 194.149 61.099, 193.860 59.987, 191.635 57.343 C 188.270 53.343, 176.962 47.487, 170 46.139 C 161.842 44.559, 148.300 43.636, 147.873 44.632 M 67 92 C 65.707 92.835, 65.734 92.971, 67.191 92.985 C 68.121 92.993, 69.160 92.550, 69.500 92 C 70.282 90.734, 68.958 90.734, 67 92 M 44.459 104.067 C 43.370 105.829, 44.518 106.076, 46.573 104.521 C 48.265 103.241, 48.294 103.060, 46.809 103.032 C 45.879 103.014, 44.821 103.480, 44.459 104.067 M 34.956 120.553 C 33.032 122.871, 33.357 128.057, 35.524 129.642 C 36.689 130.493, 40.111 131, 44.691 131 C 50.667 131, 52.365 130.635, 54 129 C 56.403 126.597, 56.538 124.214, 54.443 121.223 C 53.047 119.229, 52.031 119, 44.566 119 C 38.263 119, 35.932 119.377, 34.956 120.553 M 15 143.694 C 8.609 145.978, 10.379 156, 17.174 156 C 21.557 156, 24.684 150.068, 22.235 146.400 C 21.549 145.373, 17.519 142.903, 16.816 143.079 C 16.642 143.122, 15.825 143.399, 15 143.694 M 29.635 145.073 C 26.653 147.418, 26.270 150.512, 28.557 153.777 C 30.083 155.957, 30.531 156, 51.557 156 C 71.667 156, 73.124 155.876, 75 154 C 77.675 151.325, 77.521 148.430, 74.545 145.455 C 72.104 143.013, 71.987 143, 52.180 143 C 33.551 143, 32.100 143.133, 29.635 145.073" stroke="none" fill="#1f75db" fill-rule="evenodd"/></svg>